<?xml version="1.0" encoding="iso-8859-1"?>
<!-- Generator: Adobe Illustrator 16.0.0, SVG Export Plug-In . SVG Version: 6.00 Build 0)  -->
<!DOCTYPE svg PUBLIC "-//W3C//DTD SVG 1.1//EN" "http://www.w3.org/Graphics/SVG/1.1/DTD/svg11.dtd">
<svg version="1.1" id="Capa_1" xmlns="http://www.w3.org/2000/svg" xmlns:xlink="http://www.w3.org/1999/xlink" x="0px" y="0px"
	 width="792px" height="792px" viewBox="0 0 792 792" style="enable-background:new 0 0 792 792;" xml:space="preserve">
<g>
	<path d="M644.879,13.952C635.766,4.847,624.725,0,611.93,0h-431.86c-13.183,0-24.422,4.648-33.337,13.572
		c-8.924,8.916-13.572,20.155-13.572,32.949v380.303v318.656c0,26.366,20.543,46.521,46.909,46.521h431.86
		c12.795,0,23.943-4.747,32.949-13.563c9.213-9.015,13.961-19.774,13.961-32.957V365.185V46.521
		C658.84,33.727,653.992,23.066,644.879,13.952z M421.588,755.172c-14.35,14.35-36.836,14.35-51.177,0
		c-14.341-14.341-14.539-36.629,0-51.557c14.15-14.531,37.019-14.531,51.177,0C436.119,718.543,435.928,740.831,421.588,755.172z
		 M615.809,662.131c0,2.721-1.166,3.879-3.879,3.879h-431.86c-2.712,0-3.879-1.158-3.879-3.879V46.521
		c0-2.712,1.167-3.879,3.879-3.879h81.793H611.93c2.713,0,3.879,1.167,3.879,3.879V662.131z"/>
</g>
<g>
</g>
<g>
</g>
<g>
</g>
<g>
</g>
<g>
</g>
<g>
</g>
<g>
</g>
<g>
</g>
<g>
</g>
<g>
</g>
<g>
</g>
<g>
</g>
<g>
</g>
<g>
</g>
<g>
</g>
</svg>
