<?xml version="1.0" encoding="iso-8859-1"?>
<!-- Generator: Adobe Illustrator 18.0.0, SVG Export Plug-In . SVG Version: 6.00 Build 0)  -->
<!DOCTYPE svg PUBLIC "-//W3C//DTD SVG 1.1//EN" "http://www.w3.org/Graphics/SVG/1.1/DTD/svg11.dtd">
<svg version="1.1" id="Capa_1" xmlns="http://www.w3.org/2000/svg" xmlns:xlink="http://www.w3.org/1999/xlink" x="0px" y="0px"
	 viewBox="0 0 492.57 492.57" style="enable-background:new 0 0 492.57 492.57;" xml:space="preserve">
<g>
	<path d="M349.414,189.257c-8.168,27.009-27.28,51.549-55.483,70.47l-5.11,40.051c-1.607,12.533-10.019,22.963-22.185,27.276
		c-3.488,1.197-7.135,1.801-10.831,1.801c-8.807,0-17.104-3.408-23.299-9.504l-26.846-26.262
		c-13.379,2.102-27.094,3.151-40.912,3.151c-0.465,0-0.896-0.044-1.356-0.044c-0.093,1.494-0.336,2.943-0.336,4.457
		c0,34.396,22.694,65.166,58.367,85.787l6.576,51.536c0.43,3.344,2.692,6.13,5.877,7.262c3.151,1.084,6.69,0.303,9.079-2.053
		l35.895-35.118c15.462,3.266,31.933,5.031,48.972,5.031c90.979,0,164.748-50.352,164.748-112.445
		C492.57,243.542,430.176,196.484,349.414,189.257z M327.822,322.358c-12.027,0-21.754-9.712-21.754-21.739
		c0-11.989,9.727-21.722,21.754-21.722c12.009,0,21.706,9.732,21.706,21.722C349.528,312.646,339.831,322.358,327.822,322.358z
		 M390.44,322.358c-12.023,0-21.739-9.712-21.739-21.739c0-11.989,9.716-21.722,21.739-21.722c11.989,0,21.735,9.732,21.735,21.722
		C412.176,312.646,402.43,322.358,390.44,322.358z"/>
	<path d="M213.715,266.747l35.896,35.113c1.672,1.657,3.918,2.533,6.194,2.533c0.975,0,1.945-0.158,2.885-0.475
		c3.187-1.133,5.447-3.919,5.877-7.264l6.576-51.534c35.672-20.622,58.367-51.392,58.367-85.789
		c0-62.127-73.769-112.48-164.762-112.48C73.766,46.852,0,97.205,0,159.332c0,62.089,73.766,112.446,164.748,112.446
		C181.788,271.778,198.254,270.013,213.715,266.747z M227.366,137.578c12.023,0,21.749,9.727,21.749,21.72
		c0,12.023-9.727,21.74-21.749,21.74c-12.01,0-21.726-9.717-21.726-21.74C205.641,147.305,215.356,137.578,227.366,137.578z
		 M102.125,181.038c-11.988,0-21.735-9.717-21.735-21.74c0-11.993,9.747-21.72,21.735-21.72c12.028,0,21.74,9.727,21.74,21.72
		C123.865,171.321,114.153,181.038,102.125,181.038z M143.037,159.298c0-11.993,9.703-21.72,21.711-21.72
		c12.022,0,21.75,9.727,21.75,21.72c0,12.023-9.728,21.74-21.75,21.74C152.74,181.038,143.037,171.321,143.037,159.298z"/>
</g>
<g>
</g>
<g>
</g>
<g>
</g>
<g>
</g>
<g>
</g>
<g>
</g>
<g>
</g>
<g>
</g>
<g>
</g>
<g>
</g>
<g>
</g>
<g>
</g>
<g>
</g>
<g>
</g>
<g>
</g>
</svg>
